<mxfile host="65bd71144e">
    <diagram id="_z9tGO_Z6bBlTKb_uojR" name="Page-1">
        <mxGraphModel dx="942" dy="480" grid="1" gridSize="10" guides="1" tooltips="1" connect="1" arrows="1" fold="1" page="1" pageScale="1" pageWidth="850" pageHeight="1100" math="0" shadow="0">
            <root>
                <mxCell id="0"/>
                <mxCell id="1" parent="0"/>
                <mxCell id="8" value="" style="endArrow=none;html=1;rounded=0;" parent="1" edge="1">
                    <mxGeometry width="50" height="50" relative="1" as="geometry">
                        <mxPoint x="437" y="530.3000000000002" as="sourcePoint"/>
                        <mxPoint x="477" y="530.3000000000002" as="targetPoint"/>
                    </mxGeometry>
                </mxCell>
                <mxCell id="9" value="" style="endArrow=none;html=1;rounded=0;" parent="1" edge="1">
                    <mxGeometry width="50" height="50" relative="1" as="geometry">
                        <mxPoint x="778" y="530" as="sourcePoint"/>
                        <mxPoint x="818" y="530" as="targetPoint"/>
                    </mxGeometry>
                </mxCell>
                <mxCell id="10" value="" style="endArrow=none;html=1;rounded=0;" parent="1" edge="1">
                    <mxGeometry width="50" height="50" relative="1" as="geometry">
                        <mxPoint x="778" y="570" as="sourcePoint"/>
                        <mxPoint x="818" y="570" as="targetPoint"/>
                    </mxGeometry>
                </mxCell>
                <mxCell id="12" value="" style="endArrow=none;html=1;rounded=0;" parent="1" edge="1">
                    <mxGeometry width="50" height="50" relative="1" as="geometry">
                        <mxPoint x="1053" y="560" as="sourcePoint"/>
                        <mxPoint x="1082.0000000000005" y="560" as="targetPoint"/>
                    </mxGeometry>
                </mxCell>
                <mxCell id="15" value="Flare" style="text;html=1;strokeColor=none;fillColor=none;align=center;verticalAlign=middle;whiteSpace=wrap;rounded=0;" parent="1" vertex="1">
                    <mxGeometry x="1054" y="365" width="60" height="30" as="geometry"/>
                </mxCell>
                <mxCell id="16" value="Oil" style="text;html=1;strokeColor=none;fillColor=none;align=center;verticalAlign=middle;whiteSpace=wrap;rounded=0;" parent="1" vertex="1">
                    <mxGeometry x="422" y="586.4000000000001" width="70" height="30" as="geometry"/>
                </mxCell>
                <mxCell id="17" value="" style="shape=mxgraph.pid.vessels.tank;html=1;pointerEvents=1;align=center;verticalLabelPosition=bottom;verticalAlign=top;dashed=0;rotation=-90;" parent="1" vertex="1">
                    <mxGeometry x="302" y="461.20000000000005" width="100" height="170" as="geometry"/>
                </mxCell>
                <mxCell id="18" value="" style="endArrow=classic;html=1;rounded=0;exitX=-0.018;exitY=0.684;exitDx=0;exitDy=0;exitPerimeter=0;" parent="1" edge="1" source="17">
                    <mxGeometry width="50" height="50" relative="1" as="geometry">
                        <mxPoint x="390" y="600" as="sourcePoint"/>
                        <mxPoint x="512" y="616.4000000000001" as="targetPoint"/>
                        <Array as="points">
                            <mxPoint x="383" y="616.4000000000001"/>
                        </Array>
                    </mxGeometry>
                </mxCell>
                <mxCell id="19" value="" style="endArrow=classic;html=1;rounded=0;" parent="1" edge="1">
                    <mxGeometry width="50" height="50" relative="1" as="geometry">
                        <mxPoint x="327" y="596.1999999999998" as="sourcePoint"/>
                        <mxPoint x="456" y="641.3999999999996" as="targetPoint"/>
                        <Array as="points">
                            <mxPoint x="327" y="641.4000000000001"/>
                        </Array>
                    </mxGeometry>
                </mxCell>
                <mxCell id="20" value="Water" style="text;html=1;strokeColor=none;fillColor=none;align=center;verticalAlign=middle;whiteSpace=wrap;rounded=0;" parent="1" vertex="1">
                    <mxGeometry x="332" y="616.4000000000001" width="70" height="30" as="geometry"/>
                </mxCell>
                <mxCell id="21" value="" style="verticalLabelPosition=bottom;outlineConnect=0;align=center;dashed=0;html=1;verticalAlign=top;shape=mxgraph.pid.misc.gas_flare;" parent="1" vertex="1">
                    <mxGeometry x="1064" y="400" width="40" height="200" as="geometry"/>
                </mxCell>
                <mxCell id="22" value="" style="endArrow=none;html=1;rounded=0;" parent="1" edge="1">
                    <mxGeometry width="50" height="50" relative="1" as="geometry">
                        <mxPoint x="873" y="643" as="sourcePoint"/>
                        <mxPoint x="873" y="573" as="targetPoint"/>
                    </mxGeometry>
                </mxCell>
                <mxCell id="23" value="" style="endArrow=none;html=1;rounded=0;" parent="1" edge="1">
                    <mxGeometry width="50" height="50" relative="1" as="geometry">
                        <mxPoint x="873" y="642.8000000000002" as="sourcePoint"/>
                        <mxPoint x="903" y="642.3999999999996" as="targetPoint"/>
                        <Array as="points">
                            <mxPoint x="883" y="642.8000000000002"/>
                        </Array>
                    </mxGeometry>
                </mxCell>
                <mxCell id="26" value="" style="shape=mxgraph.pid.pumps_-_iso.pump_(liquid);html=1;pointerEvents=1;align=center;verticalLabelPosition=bottom;verticalAlign=top;dashed=0;" parent="1" vertex="1">
                    <mxGeometry x="896" y="626.6000000000001" width="27" height="30" as="geometry"/>
                </mxCell>
                <mxCell id="27" value="" style="endArrow=classic;html=1;rounded=0;exitX=1;exitY=0.5;exitDx=0;exitDy=0;exitPerimeter=0;" parent="1" edge="1">
                    <mxGeometry width="50" height="50" relative="1" as="geometry">
                        <mxPoint x="923" y="644.6000000000004" as="sourcePoint"/>
                        <mxPoint x="1080" y="645" as="targetPoint"/>
                    </mxGeometry>
                </mxCell>
                <mxCell id="30" value="To upstream process" style="text;html=1;strokeColor=none;fillColor=none;align=left;verticalAlign=middle;whiteSpace=wrap;rounded=0;" parent="1" vertex="1">
                    <mxGeometry x="980" y="656.6" width="104" height="30" as="geometry"/>
                </mxCell>
                <mxCell id="31" value="" style="endArrow=none;html=1;rounded=0;" parent="1" edge="1">
                    <mxGeometry width="50" height="50" relative="1" as="geometry">
                        <mxPoint x="933" y="480" as="sourcePoint"/>
                        <mxPoint x="933" y="430" as="targetPoint"/>
                    </mxGeometry>
                </mxCell>
                <mxCell id="32" value="" style="shape=mxgraph.pid.vessels.tank;html=1;pointerEvents=1;align=center;verticalLabelPosition=bottom;verticalAlign=top;dashed=0;rotation=-90;" parent="1" vertex="1">
                    <mxGeometry x="843" y="436.20000000000005" width="100" height="176.4" as="geometry"/>
                </mxCell>
                <mxCell id="33" value="" style="endArrow=none;html=1;rounded=0;" parent="1" edge="1">
                    <mxGeometry width="50" height="50" relative="1" as="geometry">
                        <mxPoint x="932" y="430" as="sourcePoint"/>
                        <mxPoint x="1052" y="430" as="targetPoint"/>
                    </mxGeometry>
                </mxCell>
                <mxCell id="34" value="" style="endArrow=none;html=1;rounded=0;" parent="1" edge="1">
                    <mxGeometry width="50" height="50" relative="1" as="geometry">
                        <mxPoint x="1053.5" y="560" as="sourcePoint"/>
                        <mxPoint x="1052.5" y="430" as="targetPoint"/>
                    </mxGeometry>
                </mxCell>
                <mxCell id="35" value="Flare drum" style="text;html=1;strokeColor=none;fillColor=none;align=center;verticalAlign=middle;whiteSpace=wrap;rounded=0;" parent="1" vertex="1">
                    <mxGeometry x="864" y="509.4000000000001" width="58" height="30" as="geometry"/>
                </mxCell>
                <mxCell id="36" value="Return pumps" style="text;html=1;strokeColor=none;fillColor=none;align=center;verticalAlign=middle;whiteSpace=wrap;rounded=0;" parent="1" vertex="1">
                    <mxGeometry x="883" y="656.5999999999999" width="58" height="30" as="geometry"/>
                </mxCell>
                <mxCell id="38" value="Gas" style="text;html=1;strokeColor=none;fillColor=none;align=left;verticalAlign=middle;whiteSpace=wrap;rounded=0;" parent="1" vertex="1">
                    <mxGeometry x="393" y="454.4" width="40" height="16.8" as="geometry"/>
                </mxCell>
                <mxCell id="139" style="edgeStyle=orthogonalEdgeStyle;rounded=0;html=1;entryX=0.994;entryY=0.353;entryDx=0;entryDy=0;entryPerimeter=0;endArrow=classic;endFill=1;" edge="1" parent="1" source="39" target="32">
                    <mxGeometry relative="1" as="geometry"/>
                </mxCell>
                <mxCell id="140" style="edgeStyle=orthogonalEdgeStyle;rounded=0;html=1;entryX=1.012;entryY=0.406;entryDx=0;entryDy=0;entryPerimeter=0;endArrow=none;endFill=0;" edge="1" parent="1" source="39" target="17">
                    <mxGeometry relative="1" as="geometry"/>
                </mxCell>
                <mxCell id="39" value="" style="verticalLabelPosition=bottom;align=center;html=1;verticalAlign=top;pointerEvents=1;dashed=0;shape=mxgraph.pid2valves.valve;valveType=gate;actuator=powered" parent="1" vertex="1">
                    <mxGeometry x="443" y="416.2" width="30" height="20" as="geometry"/>
                </mxCell>
                <mxCell id="40" value="" style="part=1;strokeColor=none;fillColor=none;fontStyle=1;fontSize=14;" parent="39" vertex="1">
                    <mxGeometry x="9.75" width="10.5" height="7" as="geometry"/>
                </mxCell>
                <mxCell id="43" value="" style="verticalLabelPosition=bottom;align=center;html=1;verticalAlign=top;pointerEvents=1;dashed=0;shape=mxgraph.pid2valves.valve;valveType=gate;actuator=powered" parent="1" vertex="1">
                    <mxGeometry x="465" y="602" width="30" height="20" as="geometry"/>
                </mxCell>
                <mxCell id="44" value="" style="part=1;strokeColor=none;fillColor=none;fontStyle=1;fontSize=14;" parent="43" vertex="1">
                    <mxGeometry x="9.75" width="10.5" height="7" as="geometry"/>
                </mxCell>
                <mxCell id="45" value="" style="verticalLabelPosition=bottom;align=center;html=1;verticalAlign=top;pointerEvents=1;dashed=0;shape=mxgraph.pid2valves.valve;valveType=gate;actuator=powered" parent="1" vertex="1">
                    <mxGeometry x="396" y="627.5999999999999" width="30" height="20" as="geometry"/>
                </mxCell>
                <mxCell id="46" value="" style="part=1;strokeColor=none;fillColor=none;fontStyle=1;fontSize=14;" parent="45" vertex="1">
                    <mxGeometry x="9.75" width="10.5" height="7" as="geometry"/>
                </mxCell>
                <mxCell id="47" value="" style="endArrow=classic;html=1;rounded=0;entryX=1.002;entryY=0.21;entryDx=0;entryDy=0;entryPerimeter=0;" parent="1" edge="1" target="17">
                    <mxGeometry width="50" height="50" relative="1" as="geometry">
                        <mxPoint x="93" y="430" as="sourcePoint"/>
                        <mxPoint x="303" y="500" as="targetPoint"/>
                        <Array as="points">
                            <mxPoint x="303" y="431"/>
                        </Array>
                    </mxGeometry>
                </mxCell>
                <mxCell id="48" value="Feed" style="text;html=1;strokeColor=none;fillColor=none;align=left;verticalAlign=middle;whiteSpace=wrap;rounded=0;" parent="1" vertex="1">
                    <mxGeometry x="100" y="406" width="36" height="30" as="geometry"/>
                </mxCell>
                <mxCell id="49" value="" style="endArrow=classic;html=1;rounded=0;" parent="1" edge="1">
                    <mxGeometry width="50" height="50" relative="1" as="geometry">
                        <mxPoint x="1056" y="560" as="sourcePoint"/>
                        <mxPoint x="1077.0000000000005" y="561.1999999999998" as="targetPoint"/>
                    </mxGeometry>
                </mxCell>
                <mxCell id="103" style="edgeStyle=orthogonalEdgeStyle;html=1;exitX=1;exitY=0.5;exitDx=0;exitDy=0;dashed=1;rounded=0;" edge="1" parent="1" source="63">
                    <mxGeometry relative="1" as="geometry">
                        <mxPoint x="680" y="650" as="targetPoint"/>
                    </mxGeometry>
                </mxCell>
                <mxCell id="104" style="edgeStyle=orthogonalEdgeStyle;html=1;exitX=1;exitY=0.5;exitDx=0;exitDy=0;dashed=1;rounded=0;" edge="1" parent="1" source="63">
                    <mxGeometry relative="1" as="geometry">
                        <mxPoint x="630" y="650" as="targetPoint"/>
                        <Array as="points">
                            <mxPoint x="514" y="580"/>
                            <mxPoint x="630" y="580"/>
                        </Array>
                    </mxGeometry>
                </mxCell>
                <mxCell id="63" value="LT" style="ellipse;whiteSpace=wrap;html=1;" parent="1" vertex="1">
                    <mxGeometry x="476.5" y="554.4000000000001" width="37" height="33.6" as="geometry"/>
                </mxCell>
                <mxCell id="64" value="" style="endArrow=none;html=1;rounded=0;" parent="1" edge="1">
                    <mxGeometry width="50" height="50" relative="1" as="geometry">
                        <mxPoint x="436.49999999999955" y="569.4000000000001" as="sourcePoint"/>
                        <mxPoint x="476.49999999999955" y="569.4000000000001" as="targetPoint"/>
                    </mxGeometry>
                </mxCell>
                <mxCell id="101" style="edgeStyle=orthogonalEdgeStyle;html=1;exitX=0;exitY=0.5;exitDx=0;exitDy=0;dashed=1;rounded=0;" edge="1" parent="1" source="65">
                    <mxGeometry relative="1" as="geometry">
                        <mxPoint x="680" y="650" as="targetPoint"/>
                        <Array as="points">
                            <mxPoint x="680" y="572"/>
                        </Array>
                    </mxGeometry>
                </mxCell>
                <mxCell id="102" style="edgeStyle=orthogonalEdgeStyle;html=1;exitX=0;exitY=0.5;exitDx=0;exitDy=0;dashed=1;rounded=0;" edge="1" parent="1" source="65">
                    <mxGeometry relative="1" as="geometry">
                        <mxPoint x="630" y="650" as="targetPoint"/>
                        <Array as="points">
                            <mxPoint x="748" y="580"/>
                            <mxPoint x="630" y="580"/>
                        </Array>
                    </mxGeometry>
                </mxCell>
                <mxCell id="65" value="LT" style="ellipse;whiteSpace=wrap;html=1;" parent="1" vertex="1">
                    <mxGeometry x="748" y="555" width="37" height="33.6" as="geometry"/>
                </mxCell>
                <mxCell id="98" style="edgeStyle=orthogonalEdgeStyle;html=1;dashed=1;rounded=0;" edge="1" parent="1" source="66">
                    <mxGeometry relative="1" as="geometry">
                        <mxPoint x="630" y="650" as="targetPoint"/>
                    </mxGeometry>
                </mxCell>
                <mxCell id="99" style="edgeStyle=orthogonalEdgeStyle;html=1;exitX=0;exitY=0.5;exitDx=0;exitDy=0;dashed=1;rounded=0;" edge="1" parent="1" source="66">
                    <mxGeometry relative="1" as="geometry">
                        <mxPoint x="680" y="650" as="targetPoint"/>
                        <Array as="points">
                            <mxPoint x="748" y="540"/>
                            <mxPoint x="680" y="540"/>
                        </Array>
                    </mxGeometry>
                </mxCell>
                <mxCell id="66" value="LS" style="ellipse;whiteSpace=wrap;html=1;" parent="1" vertex="1">
                    <mxGeometry x="748" y="514" width="37" height="33.6" as="geometry"/>
                </mxCell>
                <mxCell id="97" style="edgeStyle=orthogonalEdgeStyle;html=1;exitX=1;exitY=0.5;exitDx=0;exitDy=0;dashed=1;rounded=0;" edge="1" parent="1" source="67">
                    <mxGeometry relative="1" as="geometry">
                        <mxPoint x="630" y="650" as="targetPoint"/>
                    </mxGeometry>
                </mxCell>
                <mxCell id="100" style="edgeStyle=orthogonalEdgeStyle;html=1;exitX=1;exitY=0.5;exitDx=0;exitDy=0;dashed=1;rounded=0;" edge="1" parent="1" source="67">
                    <mxGeometry relative="1" as="geometry">
                        <mxPoint x="680" y="650" as="targetPoint"/>
                        <Array as="points">
                            <mxPoint x="509" y="531"/>
                            <mxPoint x="509" y="540"/>
                            <mxPoint x="680" y="540"/>
                        </Array>
                    </mxGeometry>
                </mxCell>
                <mxCell id="67" value="LS" style="ellipse;whiteSpace=wrap;html=1;" parent="1" vertex="1">
                    <mxGeometry x="476.5" y="514.0000000000002" width="37" height="33.6" as="geometry"/>
                </mxCell>
                <mxCell id="105" value="To ESD/PSD" style="text;html=1;align=center;verticalAlign=middle;resizable=0;points=[];autosize=1;strokeColor=none;fillColor=none;" vertex="1" parent="1">
                    <mxGeometry x="530" y="616.4" width="90" height="30" as="geometry"/>
                </mxCell>
                <mxCell id="106" value="To HMI" style="text;html=1;align=center;verticalAlign=middle;resizable=0;points=[];autosize=1;strokeColor=none;fillColor=none;" vertex="1" parent="1">
                    <mxGeometry x="688" y="616.4" width="60" height="30" as="geometry"/>
                </mxCell>
                <mxCell id="108" value="" style="edgeStyle=orthogonalEdgeStyle;orthogonalLoop=1;jettySize=auto;html=1;rounded=0;startArrow=none;exitX=1;exitY=0.417;exitDx=0;exitDy=0;exitPerimeter=0;" edge="1" parent="1" source="141">
                    <mxGeometry width="100" relative="1" as="geometry">
                        <mxPoint x="920" y="720" as="sourcePoint"/>
                        <mxPoint x="1080" y="720" as="targetPoint"/>
                        <Array as="points">
                            <mxPoint x="913" y="720"/>
                        </Array>
                    </mxGeometry>
                </mxCell>
                <mxCell id="109" value="To drain system" style="text;html=1;align=center;verticalAlign=middle;resizable=0;points=[];autosize=1;strokeColor=none;fillColor=none;" vertex="1" parent="1">
                    <mxGeometry x="970" y="730" width="110" height="30" as="geometry"/>
                </mxCell>
                <mxCell id="118" value="" style="line;strokeWidth=1;html=1;" vertex="1" parent="1">
                    <mxGeometry x="873" y="602.6" width="87" height="10" as="geometry"/>
                </mxCell>
                <mxCell id="111" value="Separator" style="text;html=1;align=center;verticalAlign=middle;resizable=0;points=[];autosize=1;strokeColor=none;fillColor=none;" vertex="1" parent="1">
                    <mxGeometry x="312" y="531.2" width="80" height="30" as="geometry"/>
                </mxCell>
                <mxCell id="112" value="" style="whiteSpace=wrap;html=1;" vertex="1" parent="1">
                    <mxGeometry x="1069" y="441.2" width="30" height="20" as="geometry"/>
                </mxCell>
                <mxCell id="113" value="Flare iginition&lt;br&gt;system" style="text;html=1;align=center;verticalAlign=middle;resizable=0;points=[];autosize=1;strokeColor=none;fillColor=none;" vertex="1" parent="1">
                    <mxGeometry x="1104" y="431.2" width="90" height="40" as="geometry"/>
                </mxCell>
                <mxCell id="25" value="" style="shape=mxgraph.pid.pumps_-_iso.pump_(liquid);html=1;pointerEvents=1;align=center;verticalLabelPosition=bottom;verticalAlign=top;dashed=0;" parent="1" vertex="1">
                    <mxGeometry x="896" y="592.0000000000001" width="27" height="30" as="geometry"/>
                </mxCell>
                <mxCell id="120" value="" style="endArrow=none;html=1;entryX=1;entryY=0.5;entryDx=0;entryDy=0;entryPerimeter=0;" edge="1" parent="1" target="118">
                    <mxGeometry width="50" height="50" relative="1" as="geometry">
                        <mxPoint x="960" y="645" as="sourcePoint"/>
                        <mxPoint x="920" y="560" as="targetPoint"/>
                    </mxGeometry>
                </mxCell>
                <mxCell id="129" style="edgeStyle=orthogonalEdgeStyle;html=1;entryX=0.998;entryY=0.454;entryDx=0;entryDy=0;entryPerimeter=0;rounded=0;" edge="1" parent="1" source="122" target="32">
                    <mxGeometry relative="1" as="geometry"/>
                </mxCell>
                <mxCell id="130" style="edgeStyle=orthogonalEdgeStyle;html=1;entryX=1.016;entryY=0.318;entryDx=0;entryDy=0;entryPerimeter=0;rounded=0;endArrow=none;endFill=0;" edge="1" parent="1" source="122" target="17">
                    <mxGeometry relative="1" as="geometry"/>
                </mxCell>
                <mxCell id="122" value="" style="verticalLabelPosition=bottom;align=center;html=1;verticalAlign=top;pointerEvents=1;dashed=0;shape=mxgraph.pid2valves.valve;valveType=gate;actuator=powered" vertex="1" parent="1">
                    <mxGeometry x="443" y="365" width="30" height="20" as="geometry"/>
                </mxCell>
                <mxCell id="123" value="" style="part=1;strokeColor=none;fillColor=none;fontStyle=1;fontSize=14;" vertex="1" parent="122">
                    <mxGeometry x="9.75" width="10.5" height="7" as="geometry"/>
                </mxCell>
                <mxCell id="135" style="edgeStyle=orthogonalEdgeStyle;rounded=0;html=1;entryX=0.992;entryY=0.465;entryDx=0;entryDy=0;entryPerimeter=0;endArrow=none;endFill=0;" edge="1" parent="1" source="41" target="17">
                    <mxGeometry relative="1" as="geometry"/>
                </mxCell>
                <mxCell id="136" style="edgeStyle=orthogonalEdgeStyle;rounded=0;html=1;endArrow=classic;endFill=1;" edge="1" parent="1" source="41">
                    <mxGeometry relative="1" as="geometry">
                        <mxPoint x="540" y="471.20000000000005" as="targetPoint"/>
                    </mxGeometry>
                </mxCell>
                <mxCell id="41" value="" style="verticalLabelPosition=bottom;align=center;html=1;verticalAlign=top;pointerEvents=1;dashed=0;shape=mxgraph.pid2valves.valve;valveType=gate;actuator=powered" parent="1" vertex="1">
                    <mxGeometry x="443" y="461.2" width="30" height="20" as="geometry"/>
                </mxCell>
                <mxCell id="42" value="" style="part=1;strokeColor=none;fillColor=none;fontStyle=1;fontSize=14;" parent="41" vertex="1">
                    <mxGeometry x="9.75" width="10.5" height="7" as="geometry"/>
                </mxCell>
                <mxCell id="137" value="PRV" style="text;html=1;align=center;verticalAlign=middle;resizable=0;points=[];autosize=1;strokeColor=none;fillColor=none;strokeWidth=1;" vertex="1" parent="1">
                    <mxGeometry x="433" y="390" width="50" height="30" as="geometry"/>
                </mxCell>
                <mxCell id="138" value="BDV" style="text;html=1;align=center;verticalAlign=middle;resizable=0;points=[];autosize=1;strokeColor=none;fillColor=none;" vertex="1" parent="1">
                    <mxGeometry x="432" y="330" width="50" height="30" as="geometry"/>
                </mxCell>
                <mxCell id="143" value="" style="edgeStyle=orthogonalEdgeStyle;orthogonalLoop=1;jettySize=auto;html=1;exitX=0.003;exitY=0.205;exitDx=0;exitDy=0;exitPerimeter=0;rounded=0;endArrow=none;entryX=0.111;entryY=0.417;entryDx=0;entryDy=0;entryPerimeter=0;" edge="1" parent="1" source="32" target="141">
                    <mxGeometry width="100" relative="1" as="geometry">
                        <mxPoint x="840.962" y="574.0999999999999" as="sourcePoint"/>
                        <mxPoint x="880" y="720" as="targetPoint"/>
                        <Array as="points">
                            <mxPoint x="841" y="720"/>
                            <mxPoint x="886" y="720"/>
                        </Array>
                    </mxGeometry>
                </mxCell>
                <mxCell id="141" value="" style="verticalLabelPosition=bottom;align=center;html=1;verticalAlign=top;pointerEvents=1;dashed=0;shape=mxgraph.pid2valves.valve;valveType=gate;actuator=powered" vertex="1" parent="1">
                    <mxGeometry x="883" y="710" width="30" height="20" as="geometry"/>
                </mxCell>
                <mxCell id="142" value="" style="part=1;strokeColor=none;fillColor=none;fontStyle=1;fontSize=14;" vertex="1" parent="141">
                    <mxGeometry x="9.75" width="10.5" height="7" as="geometry"/>
                </mxCell>
            </root>
        </mxGraphModel>
    </diagram>
</mxfile>